<?xml version="1.0" encoding="utf-8"?>
<!-- Generator: Adobe Illustrator 20.0.0, SVG Export Plug-In . SVG Version: 6.00 Build 0)  -->
<svg version="1.1" id="Layer_1" xmlns="http://www.w3.org/2000/svg" xmlns:xlink="http://www.w3.org/1999/xlink" x="0px" y="0px"
	 width="68px" height="68px" viewBox="0 0 68 68" style="enable-background:new 0 0 68 68;" xml:space="preserve">
<style type="text/css">
	.st0{fill:none;stroke:#00DCF0;stroke-width:0.2835;stroke-linecap:round;stroke-linejoin:round;stroke-miterlimit:10;}
	.st1{fill:none;stroke:#000000;stroke-width:0.2835;stroke-linecap:round;stroke-linejoin:round;stroke-miterlimit:10;}
	.st2{fill:none;stroke:#F00000;stroke-width:0.2835;stroke-linecap:round;stroke-linejoin:round;stroke-miterlimit:10;}
</style>
<rect x="-8.5" y="-8.5" class="st0" width="85" height="85"/>
<circle class="st0" cx="34" cy="34" r="34"/>
<path id="scleraBack" class="st0" d="M34,10C20.7,10,10,20.7,10,34S20.7,58.1,34,58.1S58.1,47.3,58.1,34S47.3,10,34,10"/>
<path id="scleraFront" class="st0" d="M34,17.7c9,0,16.3,7.3,16.3,16.3S43,50.3,34,50.3S17.7,43,17.7,34S25,17.7,34,17.7"/>
<path id="iris" class="st1" d="M34,16.3c9.8,0,17.7,7.9,17.7,17.7S43.8,51.7,34,51.7S16.3,43.8,16.3,34S24.2,16.3,34,16.3"/>
<path id="pupilMax" class="st1" d="M34,22.7c6.3,0,11.3,5.1,11.3,11.3S40.3,45.4,34,45.4S22.7,40.3,22.7,34S27.8,22.7,34,22.7"/>
<path id="pupilMin" class="st1" d="M34,31.2c1.6,0,2.8,1.3,2.8,2.8c0,1.6-1.3,2.8-2.8,2.8c-1.6,0-2.8-1.3-2.8-2.8S32.5,31.2,34,31.2
	"/>
</svg>
